<svg width="30px" height="30px" version="1.1" id="Layer_1" xmlns="http://www.w3.org/2000/svg" xmlns:xlink="http://www.w3.org/1999/xlink" x="0px" y="0px"
	 viewBox="0 0 45 45" style="enable-background:new 0 0 45 45;" xml:space="preserve">
<g>
	<path d="M0,26.2c0-0.1,0.1-0.1,0.1-0.2c0.2-0.4,0.6-0.5,1-0.4c0.4,0.1,0.6,0.4,0.7,0.9c0,1.2,0,2.4,0,3.6c0,2.3,0,4.7,0,7
		c0,0.2,0,0.3,0,0.5c5.6,0,11.2,0,16.8,0c0.3-0.9,0.8-1.6,1.6-2.1c0.8-0.4,1.6-0.5,2.5-0.3c0.6,0.2,1.2,0.3,1.7,0.4
		c0-0.1,0.1-0.1,0.1-0.2c-0.1-0.1-0.3-0.1-0.4-0.2c-3.7-3.7-7.4-7.4-11.2-11.2c-1.5-1.5-1.3-3.8,0.5-4.9c1.3-0.8,2.8-0.6,3.9,0.5
		c1.6,1.6,3.1,3.1,4.7,4.7c0.1,0.1,0.2,0.2,0.3,0.4c0.6-1.4,1.6-2.1,3.1-2.2c0-1,0.4-1.9,1.2-2.5c0.1-0.1,0.1-0.2,0.1-0.3
		c0-4.1,0-8.1,0-12.3c-8.3,0-16.6,0-25,0c0,0.2,0,0.3,0,0.5c0,3.5,0,7,0,10.5c0,0.5-0.2,0.9-0.7,1c-0.4,0.1-0.7-0.1-1-0.5
		c0,0-0.1-0.1-0.1-0.1C0,13.6,0,8.4,0,3.2c0.2-0.5,0.4-1.1,0.7-1.6C1.2,0.7,2.2,0.2,3.2,0c7.4,0,14.8,0,22.1,0c0,0,0,0,0.1,0
		c2.1,0.6,3.1,1.8,3.1,4c0,4.9,0,9.8,0,14.7c0,0.2,0,0.3,0,0.5c0.5,0.1,1,0.2,1.5,0.3c0,0,0-0.1,0.1-0.1c1-2.4,3.5-2.8,5.4-1
		c2,2,4,4,5.9,5.9c1.5,1.5,2.6,3.2,3.1,5.3c0.2,0.8,0.3,1.6,0.5,2.4c0,0.6,0,1.2,0,1.8c0,0.1-0.1,0.2-0.1,0.3
		c-0.5,4.8-3.8,8.9-8.4,10.2c-0.8,0.2-1.7,0.4-2.6,0.5c-0.6,0-1.3,0-1.9,0c-0.2,0-0.5-0.1-0.7-0.1c-1.1-0.3-2.3-0.6-3.4-0.9
		c-0.1,0-0.4-0.1-0.4,0c-0.6,0.6-1.3,0.9-2.1,1.1c-7.4,0-14.8,0-22.1,0c-0.5-0.2-1.1-0.4-1.6-0.7c-0.9-0.6-1.3-1.5-1.6-2.5
		C0,36.6,0,31.4,0,26.2z M43.2,32.6c0-2.4-1-4.9-3-6.9c-2-2-4.1-4.1-6.1-6.1c-0.6-0.6-1.5-0.7-2.1-0.1c-0.6,0.6-0.5,1.4,0.1,2
		c1,1,2,2,3,3c0.1,0.1,0.2,0.2,0.2,0.3c0.3,0.4,0.3,0.9,0,1.2c-0.3,0.3-0.8,0.3-1.2,0c-0.1-0.1-0.2-0.2-0.3-0.3
		c-1.4-1.4-2.8-2.8-4.2-4.2c-0.2-0.2-0.5-0.4-0.8-0.5c-0.6-0.2-1.2,0.1-1.5,0.7c-0.3,0.5-0.2,1.2,0.3,1.7c1.2,1.2,2.4,2.4,3.5,3.5
		c0.3,0.3,0.7,0.7,1,1c0.3,0.4,0.3,0.9,0,1.2c-0.3,0.3-0.8,0.3-1.2,0c-0.1-0.1-0.2-0.2-0.3-0.3c-1.4-1.4-2.8-2.8-4.2-4.2
		c-0.2-0.2-0.6-0.4-0.9-0.5c-0.6-0.1-1.1,0.2-1.4,0.7c-0.3,0.6-0.2,1.2,0.3,1.7c1.4,1.4,2.7,2.7,4.1,4.1c0.6,0.6,0.7,1.1,0.3,1.5
		c-0.4,0.4-0.9,0.3-1.5-0.3C23.6,28.3,20,24.7,16.3,21c-0.8-0.8-1.6-0.9-2.2-0.3c-0.6,0.6-0.5,1.4,0.2,2.2c4.5,4.5,9,9,13.5,13.5
		c0.5,0.5,0.6,0.8,0.3,1.2c-0.2,0.4-0.6,0.5-1.2,0.4c-1.6-0.4-3.2-0.8-4.8-1.1c-0.2-0.1-0.5-0.1-0.7,0c-0.7,0.1-1.2,0.7-1.2,1.3
		c-0.1,0.7,0.3,1.3,1,1.6c2.6,0.9,5.2,1.8,7.7,2.7c1.1,0.4,2.3,0.7,3.5,0.8C38.3,43.5,43.2,38.8,43.2,32.6z M26.7,5.6
		c0-0.7,0-1.3,0-1.9c0-1.1-0.8-1.9-1.9-1.9c-7,0-14.1,0-21.1,0c-0.9,0-1.7,0.6-1.9,1.5c-0.1,0.8,0,1.5,0,2.3
		C10.1,5.6,18.4,5.6,26.7,5.6z M25.4,43.2c0,0,0-0.1,0-0.1c-0.1-0.1-0.3-0.1-0.4-0.2c-1.4-0.5-2.7-1-4.1-1.4c-0.9-0.3-1.6-0.8-2-1.7
		c-0.1-0.3-0.3-0.4-0.6-0.4c-5.3,0-10.6,0-15.9,0c-0.2,0-0.3,0-0.5,0c0,0.6,0,1.2,0,1.8c0,1.2,0.8,2.1,2.1,2.1c6.9,0,13.9,0,20.8,0
		C24.9,43.2,25.1,43.2,25.4,43.2z"/>
	<path d="M0,22.2c0-0.1,0.1-0.1,0.1-0.2c0.2-0.3,0.6-0.5,1-0.4c0.4,0.1,0.6,0.4,0.6,0.9c0,0.4-0.2,0.7-0.6,0.8c-0.4,0.1-0.7,0-1-0.4
		C0.1,22.9,0,22.8,0,22.8C0,22.6,0,22.4,0,22.2z"/>
	<path d="M14.9,10.4c2.3,0.1,4.4,0.9,6.2,2.6c0.3,0.3,0.5,0.6,0.3,1c-0.2,0.6-1,0.8-1.5,0.3c-0.9-0.8-1.8-1.4-2.9-1.8
		c-2.7-0.8-5.2-0.3-7.3,1.6c-0.1,0.1-0.2,0.2-0.3,0.2c-0.4,0.3-0.9,0.3-1.2,0c-0.3-0.4-0.3-0.9,0-1.3c0.8-0.8,1.7-1.4,2.7-1.8
		C12.2,10.6,13.4,10.4,14.9,10.4z"/>
	<path d="M14.8,14.5c1.3,0,2.5,0.5,3.4,1.3c0.5,0.4,0.5,0.9,0.2,1.3c-0.4,0.4-0.9,0.4-1.4,0c-1.4-1.2-3.2-1.2-4.6,0
		c-0.5,0.4-1,0.4-1.4,0c-0.4-0.4-0.3-0.9,0.2-1.3C12.2,15,13.5,14.5,14.8,14.5z"/>
	<path d="M13.3,41.3c0-0.5,0.4-0.9,0.9-0.9c0.5,0,0.9,0.4,0.9,0.9c0,0.5-0.4,0.9-0.9,0.9C13.7,42.2,13.3,41.8,13.3,41.3z"/>
</g>
</svg>