<svg width="30px" height="30px" version="1.1" id="Layer_1" xmlns="http://www.w3.org/2000/svg" xmlns:xlink="http://www.w3.org/1999/xlink" x="0px" y="0px"
	 viewBox="0 0 45 45" style="enable-background:new 0 0 45 45;" xml:space="preserve">
<g>
	<path d="M22.5,41.8c-7.1,0-14.2,0-21.3,0c-1,0-1.2-0.2-1.2-1.2C0,28.5,0,16.5,0,4.4c0-1,0.2-1.2,1.2-1.2c14.2,0,28.4,0,42.6,0
		c1,0,1.2,0.2,1.2,1.2c0,12.1,0,24.1,0,36.2c0,1-0.2,1.2-1.2,1.2C36.7,41.8,29.6,41.8,22.5,41.8z M1.6,40.1c13.9,0,27.8,0,41.7,0
		c0-9.6,0-19.3,0-28.9c-13.9,0-27.8,0-41.7,0C1.6,20.9,1.6,30.5,1.6,40.1z M43.4,4.9c-9.6,0-19.3,0-28.9,0c0,1.6,0,3.2,0,4.8
		c9.6,0,19.2,0,28.9,0C43.4,8,43.4,6.5,43.4,4.9z M1.6,4.8c0,1.6,0,3.2,0,4.8c3.7,0,7.5,0,11.2,0c0-1.6,0-3.2,0-4.8
		C9.1,4.8,5.4,4.8,1.6,4.8z"/>
	<path d="M18.5,35.3c1.1,0,2.1,0,3.2,0c0-0.2,0-0.4,0-0.5c0-2.3,0-4.7,0-7c0-0.1,0-0.3,0-0.4c0-0.5,0.3-0.9,0.8-0.9
		c0.5,0,0.8,0.3,0.8,0.9c0,0.2,0,0.4,0,0.6c0,2.4,0,4.9,0,7.3c1.1,0,2.1,0,3.2,0c0-0.2,0-0.4,0-0.5c0-2.9,0-5.8,0-8.7
		c0-0.2,0-0.3,0-0.5c0.1-0.4,0.3-0.6,0.8-0.7c0.4,0,0.7,0.3,0.8,0.7c0,0.2,0,0.3,0,0.5c0,3.1,0,6.1,0,9.2c1.1,0,2.1,0,3.2,0
		c0-0.2,0-0.3,0-0.5c0-2.3,0-4.7,0-7c0-0.1,0-0.3,0-0.4c0-0.5,0.4-0.8,0.8-0.8c0.5,0,0.8,0.3,0.8,0.9c0,1.3,0,2.6,0,3.9
		c0,1.3,0,2.7,0,4c1.1,0,2.1,0,3.2,0c0-0.2,0-0.4,0-0.6c0-4,0-7.9,0-11.9c0-0.2,0-0.3,0-0.5c0.1-0.4,0.3-0.7,0.8-0.7
		c0.4,0,0.7,0.3,0.8,0.7c0,0.2,0,0.3,0,0.5c0,4,0,7.9,0,11.9c0,0.2,0,0.4,0,0.6c0.5,0,0.9,0,1.3,0c0.7,0,1.1,0.3,1.1,0.8
		c0,0.5-0.4,0.8-1.1,0.8c-10.5,0-21,0-31.5,0c-0.6,0-1.2,0-1.8,0c-0.6,0-0.9-0.3-0.9-0.8c0-0.5,0.4-0.8,1-0.8c0.5,0,0.9,0,1.4,0
		c0,0,0,0,0.1-0.1c0-0.4,0-0.9,0-1.4C7.2,33.3,7.5,33,8,33c0.5,0,0.8,0.3,0.8,0.9c0,0.2,0,0.5,0,0.7c0,0.2,0,0.5,0,0.7
		c1.1,0,2.1,0,3.2,0c0-0.2,0-0.4,0-0.5c0-1.9,0-3.9,0-5.8c0-0.5,0.3-0.9,0.8-0.9c0.5,0,0.8,0.3,0.8,0.9c0,0.1,0,0.2,0,0.4
		c0,1.8,0,3.6,0,5.4c0,0.2,0,0.4,0,0.6c1.1,0,2.1,0,3.2,0c0-0.2,0-0.4,0-0.5c0-1.6,0-3.2,0-4.9c0-0.6,0.3-1,0.8-1
		c0.5,0,0.8,0.4,0.8,1c0,1.6,0,3.2,0,4.8C18.5,34.9,18.5,35.1,18.5,35.3z"/>
	<path d="M25.6,20.4c-0.2,0.3-0.4,0.5-0.6,0.7c-1.7,1.8-3.5,3.5-5.2,5.3c-1.3,1.3-1.3,1.3-2.7,0c-0.9-0.9-1.8-1.7-2.7-2.6
		c-0.1,0.1-0.3,0.3-0.4,0.4c-2.3,2.3-4.5,4.5-6.8,6.8c-0.1,0.1-0.2,0.2-0.4,0.3c-0.4,0.3-0.7,0.2-1-0.1c-0.3-0.3-0.3-0.7-0.1-1
		c0.1-0.1,0.2-0.2,0.3-0.3c2.5-2.5,5-5,7.6-7.6c0.6-0.6,1-0.6,1.6,0c0.9,0.9,1.9,1.9,2.8,2.8c0.1,0.1,0.2,0.2,0.4,0.4
		c0.1-0.1,0.3-0.3,0.4-0.4c2-2,4-4,6-6c0.6-0.6,1-0.6,1.6,0c1.2,1.2,2.4,2.4,3.7,3.7c0.1,0.1,0.2,0.2,0.3,0.3
		c2.3-2.3,4.5-4.5,6.8-6.8c-0.4,0-0.9,0-1.3,0c-0.2,0-0.4,0-0.7,0c-0.4,0-0.8-0.4-0.8-0.8c0-0.4,0.3-0.8,0.7-0.8c1.4,0,2.7,0,4.1,0
		c0.5,0,0.7,0.3,0.7,0.8c0,1.3,0,2.7,0,4c0,0.5-0.4,0.8-0.8,0.8c-0.5,0-0.8-0.3-0.8-0.8c0-0.6,0-1.3,0-2c-0.2,0.2-0.3,0.3-0.5,0.4
		c-2.3,2.3-4.5,4.5-6.8,6.8c-0.6,0.6-1,0.6-1.6,0C28.4,23.1,27.1,21.8,25.6,20.4z"/>
	<path d="M28.9,8C25,8,21.1,8,17.3,8c-0.2,0-0.3,0-0.5,0c-0.4-0.1-0.7-0.3-0.7-0.8c0-0.4,0.3-0.7,0.7-0.8c0.1,0,0.3,0,0.5,0
		c7.8,0,15.6,0,23.4,0c0.2,0,0.3,0,0.5,0c0.4,0.1,0.7,0.3,0.7,0.8c0,0.4-0.3,0.7-0.7,0.8c-0.2,0-0.3,0-0.5,0C36.7,8,32.8,8,28.9,8z"
		/>
	<path d="M4.8,7.2C4.8,7.7,4.4,8,4,8C3.6,8,3.2,7.7,3.2,7.2c0-0.5,0.4-0.8,0.8-0.8C4.5,6.4,4.8,6.8,4.8,7.2z"/>
	<path d="M7.2,8C6.8,8,6.4,7.7,6.4,7.2c0-0.4,0.4-0.8,0.8-0.8C7.7,6.4,8,6.8,8,7.3C8,7.7,7.6,8,7.2,8z"/>
	<path d="M11.2,7.2c0,0.4-0.4,0.8-0.8,0.8C10,8,9.7,7.7,9.6,7.3c0-0.5,0.4-0.8,0.8-0.8C10.9,6.4,11.2,6.8,11.2,7.2z"/>
</g>
</svg>