<svg width="30px" height="30px" version="1.1" id="Layer_1" xmlns="http://www.w3.org/2000/svg" xmlns:xlink="http://www.w3.org/1999/xlink" x="0px" y="0px"
	 viewBox="0 0 45 45" style="enable-background:new 0 0 45 45;" xml:space="preserve">
<g>
	<path d="M0,23c0.2-0.7,0.5-1.5,1.2-1.9c0.5-0.3,1-0.6,1.6-0.6c2.9-0.1,5.9-0.1,8.8,0c1.6,0,2.8,1.4,2.8,3.2c0,3,0,6.1,0,9.1
		c0,1.6,0,3.2,0,4.9c0,1.6-0.9,2.8-2.4,3.1c-0.4,0.1-0.7,0.1-1.1,0.1c-2.4,0-4.8,0-7.2,0c-1.8,0-3.2-0.5-3.7-2.6C0,33.2,0,28.1,0,23
		z M12.3,30.7c0-2.3,0-4.6,0-6.9c0-1-0.3-1.3-1.3-1.3c-2.5,0-5,0-7.6,0c-1,0-1.3,0.3-1.3,1.3c0,4.6,0,9.1,0,13.7
		c0,1,0.3,1.3,1.3,1.3c2.5,0,5,0,7.5,0c1.1,0,1.4-0.3,1.4-1.4C12.3,35.2,12.3,32.9,12.3,30.7z"/>
	<path d="M29.7,34.8c0,1.1,0,2.2,0,3.3c0,0.5,0.4,0.7,1,0.8c0.4,0,0.9,0,1.3,0.1c0.4,0.1,0.7,0.4,0.7,0.8c0.1,0.5-0.1,0.9-0.5,1
		c-0.2,0.1-0.4,0.1-0.6,0.1c-4.6,0-9.3,0-13.9,0c-0.9,0-1.4-0.5-1.2-1.3c0.1-0.5,0.4-0.7,1-0.7c0.3,0,0.7,0,1,0c0.6,0,0.9-0.4,1-0.9
		c0-1,0-2,0-3.1c-0.4,0-0.9,0-1.3,0c-0.3,0-0.6,0-0.9,0c-0.5-0.1-0.9-0.5-0.9-1c0-0.5,0.3-0.9,0.9-1c0.2,0,0.4,0,0.6,0
		c7.9,0,15.7,0,23.6,0c0.2,0,0.4,0,0.6,0c0.5-0.1,0.8-0.3,0.9-0.8c0-0.2,0.1-0.4,0.1-0.6c0-7.9,0-15.8,0-23.7c0-0.2,0-0.4-0.1-0.7
		c-0.1-0.5-0.4-0.7-0.8-0.8c-0.2,0-0.4,0-0.5,0c-11.4,0-22.7,0-34.1,0c-0.2,0-0.4,0-0.5,0C6.5,6.2,6.2,6.5,6.2,7c0,0.2,0,0.4,0,0.5
		c0,3.2,0,6.3,0,9.5c0,0.2,0,0.4-0.1,0.6c-0.1,0.5-0.5,0.8-1,0.8c-0.5,0-0.9-0.3-1-0.8c0-0.1,0-0.3,0-0.4c0-3.3,0-6.6,0-9.8
		C4.1,6,4.6,5,5.8,4.4c0.5-0.2,1-0.3,1.5-0.3c11.5,0,22.9,0,34.4,0c2.1,0,3.3,1.3,3.3,3.3c0,8,0,16,0,24c0,1.7-0.8,2.8-2.3,3.2
		c-0.4,0.1-0.8,0.1-1.1,0.1c-3.8,0-7.6,0-11.3,0C30,34.8,29.9,34.8,29.7,34.8z M27.7,38.8c0-1.4,0-2.7,0-4c-2.1,0-4.1,0-6.2,0
		c0,1.4,0,2.7,0,4C23.5,38.8,25.6,38.8,27.7,38.8z"/>
	<path d="M28.7,26.6c3.6,0,7.2,0,10.8,0c0.2,0,0.4,0,0.6,0c0.5,0.1,0.8,0.4,0.9,0.9c0,0.6-0.2,0.9-0.8,1c-0.2,0-0.3,0-0.5,0
		c-7.3,0-14.6,0-21.9,0c-0.8,0-1.2-0.2-1.3-0.9c-0.1-0.6,0.2-1.1,0.8-1.2c0.2,0,0.4,0,0.6,0C21.5,26.6,25.1,26.6,28.7,26.6z"/>
	<path d="M23.5,30.7c0-0.6,0.4-1,1-1c0.5,0,1,0.5,1,1c0,0.5-0.5,1-1,1C24,31.7,23.5,31.2,23.5,30.7z"/>
	<path d="M7.2,37.8c-0.6,0-1-0.4-1-1c0-0.6,0.5-1,1-1c0.5,0,1,0.5,1,1C8.2,37.4,7.7,37.8,7.2,37.8z"/>
</g>
</svg>