<svg width="30px" height="30px" version="1.1" id="Layer_1" xmlns="http://www.w3.org/2000/svg" xmlns:xlink="http://www.w3.org/1999/xlink" x="0px" y="0px"
	 viewBox="0 0 45 45" style="enable-background:new 0 0 45 45;" xml:space="preserve">
<g>
	<path d="M7.9,32.3h29.2l0-0.6c-0.3-6.1-3.1-10.4-8.1-12.9c-5.4-2.6-10.7-2.1-15.5,1.7c-3.5,2.7-5.3,6.5-5.5,11.3L7.9,32.3z
		 M9.1,31.1c0.2-4.1,1.9-7.4,5-9.8c2.2-1.7,4.5-2.7,6.9-3c2.4-0.3,4.9,0.2,7.4,1.4c4.5,2.2,7,6,7.4,11.3H9.1z"/>
	<rect x="0" y="35.6" width="44.9" height="1"/>
	<rect x="2.1" y="25.1" transform="matrix(0.3734 -0.9277 0.9277 0.3734 -24.092 20.0163)" width="1.3" height="5.5"/>
	<rect x="6.5" y="14.5" transform="matrix(0.7341 -0.6791 0.6791 0.7341 -9.8008 9.3879)" width="1.3" height="5.5"/>
	<rect x="39.5" y="27.2" transform="matrix(0.9277 -0.3733 0.3733 0.9277 -7.3414 17.7791)" width="5.5" height="1.3"/>
	<rect x="34.3" y="16.6" transform="matrix(0.6791 -0.7341 0.7341 0.6791 -0.7584 32.6735)" width="5.5" height="1.3"/>
	<rect x="19.1" y="10.6" transform="matrix(3.890945e-02 -0.9992 0.9992 3.890945e-02 9.8048 32.6372)" width="5.5" height="1.3"/>
</g>
</svg>