<svg width="30px" height="30px" version="1.1" id="Layer_1" xmlns="http://www.w3.org/2000/svg" xmlns:xlink="http://www.w3.org/1999/xlink" x="0px" y="0px"
	 viewBox="0 0 45 45" style="enable-background:new 0 0 45 45;" xml:space="preserve">
<g>
	<path d="M45,40.1c-0.2,0.7-0.5,1.4-1.2,1.9c-1,0.8-2.6,0.8-3.6,0c-0.2-0.2-0.4-0.3-0.6-0.5c-2.1-2.1-4.3-4.3-6.4-6.4
		c-0.2-0.2-0.4-0.3-0.7-0.1c-6.3,3.3-14.2,0.1-16.2-6.7c-0.7-2.3-0.7-4.5,0-6.8c0-0.1,0.1-0.2,0.1-0.3c0,0,0-0.1,0-0.1
		c-0.2,0-0.3,0-0.5,0c-4.1,0-8.2,0-12.3,0c-1.8,0-3.1-1-3.6-2.6C0,18,0,17.6,0,17.3c0-3.7,0-7.4,0-11.1c0-2.3,1.5-3.8,3.8-3.8
		c1.1,0,2.1,0,3.2,0c0.6,0,0.9,0.3,1,0.7c0.1,0.6-0.3,1-1,1c-1.1,0-2.1,0-3.2,0c-1.3,0-2,0.7-2,2c0,3.7,0,7.4,0,11.1
		c0,1.3,0.7,2,2,2c4.4,0,8.8,0,13.1,0c0.2,0,0.5-0.1,0.5-0.2c1.2-1.9,2.8-3.4,4.8-4.4c0.1,0,0.1-0.1,0.2-0.1c-0.5-1-1.1-2-1.6-3.1
		c-0.4,0.9-0.8,1.7-1.2,2.5c-0.1,0.2-0.1,0.3-0.2,0.5c-0.4,0.6-1.2,0.6-1.5,0c-0.8-1.5-1.6-3.1-2.4-4.6c-0.2-0.5,0-1,0.4-1.2
		c0.4-0.2,0.9-0.1,1.2,0.4c0.5,0.9,1,1.9,1.5,2.9c0.1-0.1,0.2-0.2,0.2-0.3c0.4-0.8,0.8-1.6,1.1-2.3c0.2-0.4,0.4-0.8,0.9-0.8
		c0.5,0,0.7,0.3,0.9,0.7c0.5,0.9,0.9,1.8,1.4,2.8c0.4-0.9,0.8-1.6,1.2-2.4c0.1-0.2,0.2-0.4,0.3-0.6c0.3-0.4,0.7-0.5,1.1-0.3
		c0.4,0.2,0.6,0.6,0.4,1c-0.2,0.6-0.5,1.1-0.7,1.6c-0.4,0.8-0.8,1.7-1.2,2.6c1.6-0.4,3.1-0.5,4.7-0.3c-0.3-0.5-0.5-0.9-0.7-1.4
		c-0.4-0.8-0.8-1.5-1.2-2.3c-0.3-0.5-0.1-1,0.3-1.3c0.5-0.2,1-0.1,1.2,0.5c0.5,0.9,1,1.9,1.5,2.9c0.1-0.1,0.1-0.2,0.2-0.3
		c0.4-0.8,0.8-1.7,1.2-2.5c0.2-0.4,0.4-0.6,0.8-0.6c0.4,0,0.7,0.2,0.9,0.6c0.5,0.9,1,1.8,1.5,2.8c0.1-0.1,0.1-0.2,0.2-0.3
		c0.4-0.8,0.8-1.6,1.2-2.5c0.3-0.6,0.8-0.8,1.2-0.6c0.5,0.2,0.6,0.7,0.4,1.3c-0.7,1.4-1.4,2.9-2.1,4.3c-0.2,0.4-0.4,0.6-0.8,0.6
		c-0.4,0-0.7-0.2-0.8-0.6c-0.5-0.9-1-1.9-1.5-2.9c-0.4,0.9-0.9,1.8-1.3,2.7c0.1,0.1,0.2,0.1,0.3,0.2c2.4,0.9,4.3,2.5,5.6,4.7
		c0.1,0.2,0.3,0.3,0.6,0.3c1.3,0,2.5,0,3.8,0c1.2,0,1.9-0.7,1.9-1.9c0-3.7,0-7.5,0-11.2c0-1.2-0.7-2-2-2c-8.7,0-17.4,0-26.1,0
		c-0.2,0-0.4,0-0.5,0c-0.4-0.1-0.7-0.4-0.8-0.8c0-0.4,0.3-0.8,0.8-0.9c0.1,0,0.3,0,0.4,0c8.7,0,17.4,0,26.1,0c1.9,0,3.5,1.2,3.7,3
		c0,0,0,0.1,0.1,0.1c0,4.2,0,8.3,0,12.5c0,0.1-0.1,0.1-0.1,0.2c-0.2,1.1-0.9,2-1.9,2.5c-0.5,0.2-1.2,0.3-1.7,0.4
		c-1.1,0.1-2.1,0-3.2,0c1.5,5,0.3,9.3-3.6,12.8c2.3,2.3,4.5,4.5,6.7,6.7c0,0,0.1,0.1,0.1,0.1c0.7,0.6,1.8,0.2,2-0.7
		c0.1-0.5-0.1-0.9-0.4-1.2c-0.8-0.8-1.7-1.7-2.5-2.5c-0.3-0.3-0.5-0.7-0.3-1.1c0.3-0.6,1-0.7,1.5-0.2c0.7,0.7,1.4,1.4,2.1,2.1
		c0.7,0.6,1.2,1.3,1.5,2.2C45,39.5,45,39.8,45,40.1z M27.2,34.6c5.3,0,9.7-4.4,9.7-9.7c0-5.3-4.3-9.6-9.6-9.7
		c-5.3,0-9.7,4.3-9.7,9.7C17.6,30.2,21.9,34.5,27.2,34.6z"/>
	<path d="M11.5,12c0.5-1,0.9-1.9,1.4-2.8c0.2-0.5,0.6-0.7,1-0.6c0.6,0.1,0.8,0.7,0.5,1.4c-0.6,1.2-1.1,2.4-1.7,3.6
		c-0.1,0.3-0.3,0.6-0.4,0.8c-0.2,0.3-0.4,0.5-0.8,0.5c-0.4,0-0.7-0.2-0.8-0.5c-0.5-0.9-1-1.9-1.5-2.9c-0.1,0.1-0.1,0.2-0.2,0.3
		c-0.4,0.8-0.8,1.6-1.2,2.5c-0.2,0.4-0.4,0.6-0.9,0.7c-0.4,0-0.7-0.2-0.9-0.6c-0.7-1.4-1.5-2.9-2.2-4.3C3.6,9.3,3.8,8.8,4.4,8.6
		c0.4-0.1,0.8,0.1,1.1,0.6c0.4,0.8,0.8,1.6,1.3,2.4C6.8,11.7,6.9,11.8,7,12c0.4-0.9,0.9-1.8,1.3-2.6c0.1-0.1,0.1-0.3,0.2-0.4
		C8.9,8.3,9.6,8.4,10,9.1c0.4,0.8,0.9,1.7,1.3,2.5C11.4,11.7,11.4,11.8,11.5,12z"/>
	<path d="M11.1,4.1c-0.5,0-0.9-0.4-0.9-0.9c0-0.5,0.4-0.9,0.9-0.9c0.5,0,0.9,0.4,0.9,0.9C11.9,3.7,11.5,4.1,11.1,4.1z"/>
	<path d="M38.7,34.2c-0.5,0-0.9-0.4-0.9-0.9c0-0.5,0.4-0.9,0.9-0.9c0.5,0,0.9,0.4,0.9,0.9C39.5,33.8,39.1,34.2,38.7,34.2z"/>
	<path d="M27.3,17.2c4.3,0,7.7,3.5,7.7,7.8c0,4.2-3.5,7.7-7.7,7.7c-4.3,0-7.7-3.5-7.7-7.8C19.5,20.6,23,17.1,27.3,17.2z M33.2,24.9
		c0-3.3-2.7-6-6-6c-3.3,0-5.9,2.7-6,6c0,3.3,2.7,6,6,6C30.5,30.9,33.2,28.2,33.2,24.9z"/>
	<path d="M31.2,24.8c0,0.5-0.4,0.9-0.8,1c-0.5,0-0.8-0.3-0.9-0.8c-0.1-0.3-0.1-0.6-0.2-0.9c-0.4-0.8-1-1.3-1.9-1.3
		c-0.6-0.1-1-0.4-1-1c0.1-0.5,0.5-0.9,1.2-0.8C29.6,21.2,31.2,22.8,31.2,24.8z"/>
</g>
</svg>