<svg class="icon-left" width="30px" height="30px" version="1.1" id="Layer_1" xmlns="http://www.w3.org/2000/svg" xmlns:xlink="http://www.w3.org/1999/xlink" x="0px" y="0px"
	 viewBox="0 0 26 26" style="enable-background:new 0 0 26 26;" xml:space="preserve">
<style type="text/css">
	.st0{fill:#000;}
</style>
<g>
	<path class="st0" d="M26,15.2c-0.1,0.4-0.1,0.7-0.2,1.1c-0.2,0.9-0.7,1.7-1.6,2c-0.4,0.2-0.8,0.2-1.3,0.3c0,0.1,0,0.2,0,0.3
		c0,0.7,0,1.5-0.1,2.2c-0.2,1.8-1.8,3.2-3.6,3.3c-0.8,0-1.5,0-2.3,0c-0.2,0-0.3,0-0.4,0.2c-0.4,0.8-1.1,1.3-2,1.3
		c-0.7,0-1.3,0-2-0.1c-1.1-0.2-1.9-1.2-1.9-2.4c0.1-1.1,1-2.1,2.1-2.1c0.7,0,1.4,0,2.1,0c0.8,0.1,1.4,0.6,1.7,1.3
		c0.1,0.1,0.1,0.2,0.3,0.2c0.7,0,1.5,0,2.2,0c1.3,0,2.3-1,2.3-2.3c0-0.2,0-0.5,0-0.7c-0.1,0-0.2,0-0.3,0c-0.7,0-1.3,0-2,0
		c-0.4,0-0.8-0.3-0.8-0.8c0-3.1,0-6.1,0-9.2c0-0.5,0.3-0.8,0.8-0.8c0.6,0,1.3,0,1.9,0c0.1,0,0.2,0,0.2,0c-0.1-3.3-3-7.4-7.9-7.6
		c-5-0.2-8.5,3.7-8.8,7.6c0.1,0,0.2,0,0.3,0c0.6,0,1.3,0,1.9,0c0.5,0,0.8,0.3,0.8,0.8c0,3,0,6.1,0,9.1c0,0.5-0.3,0.8-0.8,0.8
		c-1,0-2,0-3,0c-0.5,0-0.8-0.3-0.8-0.8c0-0.2,0-0.3,0-0.5c-0.3,0-0.5,0-0.8-0.1c-1.1-0.2-1.7-1-2-2c-0.4-1.4-0.4-2.7,0-4.1
		c0.3-1,0.8-1.7,1.9-1.9c0.3-0.1,0.6-0.1,0.9-0.1c0-0.4,0-0.9,0.1-1.3c0.2-2.5,1.2-4.6,3-6.3C7.8,1.2,9.8,0.3,12.2,0
		c0.1,0,0.1,0,0.2,0c0.4,0,0.9,0,1.3,0c0.1,0,0.1,0,0.2,0c1.7,0.1,3.2,0.7,4.6,1.6c2.7,1.8,4.2,4.3,4.5,7.5c0,0.4,0,0.9,0.1,1.3
		c0.1,0,0.2,0,0.2,0c1,0,1.7,0.4,2.2,1.3c0.2,0.3,0.3,0.6,0.4,1c0.1,0.4,0.1,0.7,0.2,1.1C26,14.3,26,14.8,26,15.2z M6.1,18.4
		c0-2.5,0-5.1,0-7.6c-0.5,0-1,0-1.5,0c0,2.6,0,5.1,0,7.6C5.1,18.4,5.6,18.4,6.1,18.4z M21.4,18.4c0-2.6,0-5.1,0-7.6
		c-0.5,0-1,0-1.5,0c0,2.6,0,5.1,0,7.6C20.4,18.4,20.9,18.4,21.4,18.4z M3.1,12c-0.5-0.1-0.9,0-1.1,0.5c-0.1,0.2-0.2,0.4-0.2,0.6
		c-0.2,0.8-0.2,1.7-0.1,2.5c0.1,0.4,0.2,0.7,0.3,1C2.2,17,2.6,17.2,3.1,17C3.1,15.4,3.1,13.7,3.1,12z M23,17
		c0.6,0.1,0.9-0.1,1.2-0.5c0.1-0.2,0.2-0.4,0.2-0.5c0.2-0.7,0.2-1.4,0.1-2.1c0-0.5-0.1-1-0.3-1.4c-0.3-0.4-0.7-0.6-1.1-0.4
		C23,13.7,23,15.4,23,17z M13.8,24.5c0.2,0,0.5,0,0.7,0c0.4,0,0.8-0.3,0.8-0.8c0-0.4-0.3-0.8-0.8-0.8c-0.5,0-1,0-1.5,0
		c-0.4,0-0.8,0.3-0.8,0.8c0,0.4,0.3,0.7,0.8,0.8C13.3,24.5,13.5,24.5,13.8,24.5z"/>
</g>
</svg>