<svg width="30px" height="30px" version="1.1" id="Layer_1" xmlns="http://www.w3.org/2000/svg" xmlns:xlink="http://www.w3.org/1999/xlink" x="0px" y="0px"
	 viewBox="0 0 45 45" style="enable-background:new 0 0 45 45;" xml:space="preserve">
<style type="text/css">
	.st0{fill:#000;}
</style>
<g>
	<path class="st0" d="M0,9.5l0.1-0.1c0.5-1.7,1.6-2.6,3.4-2.6c7.2,0,14.5,0,21.7,0c5.4,0,10.8,0,16.3,0c2.2,0,3.6,1.4,3.6,3.6
		c0,0.8,0,1.6,0,2.3c0,0.5-0.3,0.8-0.7,0.8s-0.7-0.3-0.7-0.9c0-0.8,0-1.7,0-2.5c0-1.2-0.8-2-2-2c-12.7,0-25.5,0-38.2,0
		c-1.2,0-2,0.8-2,2c0,8.2,0,16.4,0,24.7c0,1.2,0.8,2,2.1,2c12.7,0,25.4,0,38.1,0c1.3,0,2-0.8,2-2.1c0-6.4,0-12.9,0-19.3
		c0-0.7,0.2-1,0.7-1.1c0.5,0,0.7,0.3,0.7,1.1c0,6.4,0,12.8,0,19.2c0,2.2-1.4,3.6-3.6,3.6c-12.6,0-25.2,0-37.7,0c-2,0-3-0.8-3.6-2.7
		c0,0,0,0-0.1-0.1C0,26.8,0,18.2,0,9.5z"/>
	<path class="st0" d="M19.7,27c-1.3,0.4-2.6,0.3-3.7-0.4c-0.4,0.6-1,0.7-1.7,0.7s-1.4,0.2-2-0.3c0,0-0.1,0-0.2,0
		c-1.1,0.4-2.2,0.4-3.2,0c-0.1,0-0.3,0-0.5,0c-1.2,0.3-2.4,0.3-3.6-0.3c-1-0.4-1.3-1.1-0.9-2.1C4.1,24,4.4,23.5,4.6,23
		c0-0.1,0-0.2,0-0.3c-0.6-2.3,0.6-4.2,3-4.5c0.6-0.1,1.2,0,1.9,0c0.1-0.4,0.2-0.9,0.3-1.3c0.2-0.8,0.7-1.2,1.5-1.2
		c0.5,0,1.1,0,1.6,0c1,0,1.6,0.8,1.4,1.7c0,0.3-0.1,0.5-0.1,0.8c1.3,0.3,1.3,0.3,2.1,0.9c0.7-0.5,1.5-0.9,2.4-1s1.7,0,2.5,0.4
		c0.1,0.1,0.3,0,0.5,0c0.3-0.1,0.5-0.2,0.8-0.3c0.7,0,1.4,0,2.1,0.1h0.1c1-0.3,2-0.2,2.9,0.3c-0.2-1.3,0.2-2.3,1.3-2.8
		c1-0.5,2-0.3,2.8,0.4c0.8-0.2,1.5-0.6,2.2-0.7c0.6-0.1,1.2,0,1.8,0.2c0.8,0.2,1.1,0.9,0.9,1.7c-0.1,0.3-0.1,0.6-0.2,0.8
		c0.4,0.2,0.8,0.3,1.2,0.5c1-0.6,2.1-0.4,3.2-0.3c0.8,0.1,1.3,1.1,0.9,1.9c-1.1,2.2-2.1,4.3-3.3,6.5c-0.7,1.2-1.6,2.2-2.9,2.7
		c-0.3,0.1-0.5,0.2-0.8,0.3c-0.9,0.2-1.6-0.2-1.8-1.1c-0.1-0.5-0.3-1-0.4-1.6c-0.1,0-0.2,0-0.3,0c-1.4,0-2.9,0-4.3,0
		c-0.3,0-0.6,0-0.8-0.2c-0.4-0.3-0.6-0.2-1,0s-0.8,0.3-1.2,0.3c-0.3,0-0.5,0.2-0.5,0.5c0,0.2-0.1,0.5-0.1,0.7
		c-0.2,0.7-0.7,1-1.3,1.1c-0.6,0-1.2,0-1.8,0c-0.9,0-1.5-0.8-1.4-1.7C19.6,27.6,19.7,27.4,19.7,27z M22.5,19.8
		c-0.5,2.8-1,5.5-1.5,8.3c0.6,0,1.1,0,1.7,0c0.2-0.8,0.3-1.6,0.5-2.5c1.3,0.4,2.4,0.2,3.3-0.7c0.9-0.9,1.2-2.1,1.1-3.4
		c-0.1-0.8-0.4-1.4-1.1-1.7c-0.8-0.3-1.5-0.1-2.1,0.4c-0.1,0.1-0.3,0.2-0.4,0.4c0-0.3,0-0.6,0.1-0.8C23.4,19.8,22.9,19.8,22.5,19.8z
		 M11.2,25.8c0-0.2,0.1-0.3,0.1-0.5c0.2-0.9,0.3-1.9,0.6-2.8c0.1-0.4,0.4-0.8,0.7-1.2c0.1-0.2,0.5-0.2,0.8-0.1
		c0.2,0.1,0.3,0.4,0.3,0.7c0,0.5-0.1,1.1-0.2,1.6c-0.1,0.8-0.3,1.5-0.4,2.3c0.6,0,1.1,0,1.7,0c0.1-0.3,0.1-0.5,0.1-0.8
		c0.2-1.2,0.5-2.4,0.6-3.7c0.1-1.2-0.8-1.8-2-1.5c-0.3,0.1-0.6,0.3-1,0.5c-0.1,0.1-0.2,0.1-0.3,0.3c0.2-1.2,0.4-2.3,0.6-3.4
		c-0.5,0-0.9,0-1.3,0c-0.3,0-0.4,0.1-0.4,0.4c-0.4,2-0.7,4-1.1,6c-0.1,0.7-0.3,1.5-0.4,2.2C10.1,25.8,10.7,25.8,11.2,25.8z
		 M21.7,22.2c0-1.7-1.1-2.7-2.8-2.5c-1.7,0.2-2.9,1.5-3.1,3.3c-0.2,2.3,1.6,3.3,3.4,2.8C20.7,25.2,21.6,23.9,21.7,22.2z M36.4,19.9
		c-0.6,0-1.2,0-1.8,0c0.3,1.6,0.6,3.2,1,4.8c0.2,0.8-0.1,1.2-0.6,1.7c-0.4,0.3-0.8,0.5-1.2,0.8c0.1,0.5,0.2,0.9,0.4,1.4
		c0.8-0.2,1.4-0.5,1.9-1.1s1.1-1.2,1.4-1.9c1-1.8,1.8-3.6,2.7-5.5c0,0,0-0.1,0.1-0.2c-0.4,0-0.8,0-1.2,0s-0.6,0.1-0.7,0.5
		c-0.4,1.1-0.9,2.3-1.4,3.5C36.7,22.4,36.6,21.2,36.4,19.9z M31.2,21.2c-0.3,1.5-0.6,3-0.8,4.5c0.6,0,1.1,0,1.7,0
		c0.2-1.3,0.5-2.5,0.7-3.8c0.1-0.8,0.1-0.8,0.9-0.8c0.1,0,0.3-0.1,0.4-0.2c0.1-0.4,0.1-0.7,0.2-1.2c-0.4,0-0.7,0-1.1,0
		c0.1-1,0.3-1.2,1.6-1.4c0.1-0.4,0.2-0.8,0.3-1.3c-1.1-0.5-2.4,0-3,1c-0.2,0.4-0.3,0.9-0.5,1.3c0,0.1-0.2,0.3-0.3,0.3
		c-0.6-0.1-0.6,0.2-0.7,0.7c0,0.2-0.1,0.4-0.1,0.7C30.7,21.1,31,21.2,31.2,21.2z M9.4,21.1c0.1-0.3,0.2-0.6,0.3-1
		c0-0.1-0.1-0.2-0.2-0.3c-0.9-0.4-2.5-0.2-3.2,0.5c-0.8,0.8-0.8,2,0.1,2.7c0.2,0.2,0.5,0.3,0.7,0.5c0.3,0.2,0.5,0.4,0.4,0.7
		c-0.1,0.4-0.4,0.4-0.7,0.4c-0.5-0.1-1-0.2-1.5-0.3c-0.1,0.4-0.2,0.7-0.4,1.1c1,0.7,2.9,0.6,3.8-0.2c0.8-0.8,0.8-2-0.1-2.7
		C8.3,22.3,8,22.2,7.7,22c-0.2-0.1-0.5-0.3-0.4-0.6C7.7,21.1,8,21,8.2,20.9C8.6,20.9,9,21,9.4,21.1z M30.3,19.8c-0.6,0-1.1,0-1.7,0
		c-0.4,2-0.7,3.9-1.1,5.9c0.6,0,1.1,0,1.7,0C29.6,23.7,30,21.8,30.3,19.8z M30.8,18c0-0.5-0.4-0.9-0.9-0.9c-0.6,0-1,0.5-1,1.1
		c0,0.5,0.4,0.9,0.9,0.9C30.3,19,30.8,18.6,30.8,18z M34,23.8C33.9,23.8,33.9,23.8,34,23.8c-0.2,0.6-0.3,1.1-0.4,1.7
		c0.6-0.2,0.7-0.3,0.6-0.9C34.1,24.3,34,24.1,34,23.8z"/>
	<path class="st0" d="M25.8,22.2c0,0.7-0.2,1.3-0.7,1.9c-0.2,0.2-0.5,0.4-0.8,0.5c-0.7,0.1-0.9-0.1-0.8-0.8c0.1-0.6,0.2-1.1,0.4-1.6
		c0.1-0.3,0.3-0.6,0.6-0.8c0.5-0.4,1.2-0.1,1.2,0.5C25.8,22,25.8,22.1,25.8,22.2z"/>
	<path class="st0" d="M19.3,23.9c-0.3,0.5-0.7,0.6-1.1,0.5s-0.7-0.5-0.6-1c0.1-0.6,0.2-1.2,0.5-1.8c0.3-0.6,0.8-0.8,1.3-0.6
		c0.4,0.1,0.6,0.5,0.6,1.2"/>
</g>
</svg>
