<svg width="30px" height="30px" version="1.1" id="Layer_1" xmlns="http://www.w3.org/2000/svg" xmlns:xlink="http://www.w3.org/1999/xlink" x="0px" y="0px"
	 viewBox="0 0 45 45" style="enable-background:new 0 0 45 45;" xml:space="preserve">
<g>
	<path d="M45,33.3c-0.3,0.9-0.9,1.2-1.9,1.2c-4.3,0-8.6,0-12.9,0c-0.9,0-1.6-0.6-1.6-1.4c-0.1-0.9,0.6-1.6,1.6-1.6
		c1.9,0,3.7,0,5.6,0c1.9,0,3.7,0,5.6,0c0.2,0,0.3,0,0.5,0c-0.4-4.2-1.9-7.9-4.6-11.2c-0.4,0.4-0.8,0.8-1.1,1.1
		c-0.7,0.7-1.6,0.8-2.3,0.1c-0.6-0.6-0.6-1.5,0.1-2.2c0.7-0.7,1.4-1.5,2.2-2.2c0.7-0.7,1.6-0.7,2.3,0c3.6,3.7,5.7,8.1,6.3,13.2
		c0,0.4,0.1,0.8,0.2,1.2C45,32.1,45,32.7,45,33.3z"/>
	<path d="M3,31.5c0.3,0,0.5,0,0.6,0c4.1,0,8.3,0,12.4,0c0.2,0,0.5,0,0.7,0c0.8,0.1,1.4,0.7,1.4,1.5c0,0.8-0.5,1.4-1.3,1.5
		c-0.1,0-0.2,0-0.3,0c-5,0-9.9,0-14.9,0c-0.9,0-1.5-0.4-1.6-1.2c0-0.2,0-0.3,0-0.5c0-3.9,1-7.6,2.9-11c0.4-0.7,1.3-1,2-0.6
		c0.7,0.4,1,1.3,0.6,2c-0.9,1.6-1.6,3.2-1.9,4.9C3.3,29.3,3.2,30.3,3,31.5z"/>
	<path d="M24,13.6c0,0.5,0,0.9,0,1.3c0,0.9-0.6,1.6-1.5,1.6c-0.8,0-1.5-0.7-1.5-1.6c0-1,0-1.9,0-2.9c0-0.9,0.6-1.5,1.5-1.5
		c4,0,7.8,1,11.3,3.1c0.7,0.4,1,1.3,0.5,2.1c-0.4,0.7-1.3,1-2.1,0.5c-2.1-1.2-4.3-2-6.7-2.4c-0.3-0.1-0.7-0.1-1-0.1
		C24.4,13.6,24.2,13.6,24,13.6z"/>
	<path d="M9.9,18.2c0.4,0.4,0.7,0.8,1,1.1c0.6,0.7,0.7,1.6,0.1,2.2c-0.6,0.6-1.5,0.6-2.2,0c-0.7-0.7-1.4-1.4-2.1-2.1
		c-0.7-0.7-0.7-1.6,0-2.4c2.5-2.5,5.5-4.2,8.9-5.3c0.2-0.1,0.4-0.1,0.6-0.2c0.8-0.3,1.8,0.1,2,1c0.2,0.9-0.3,1.7-1.2,1.9
		C14.4,15,12,16.4,9.9,18.2z"/>
	<path d="M31.6,25.5c-0.2,0.3-0.3,0.8-0.6,1c-2.5,2.5-5,5-7.5,7.5c-0.6,0.6-1.5,0.6-2.1,0c-0.6-0.6-0.6-1.5,0-2.2
		c2.5-2.5,5-5,7.5-7.5c0.5-0.5,1-0.6,1.7-0.4c0.6,0.2,0.9,0.8,0.9,1.4C31.5,25.5,31.6,25.5,31.6,25.5z"/>
</g>
</svg>